<?xml version="1.0" encoding="UTF-8" standalone="no"?>
<!-- Created with Inkscape (http://www.inkscape.org/) -->

<svg
   width="105.83353mm"
   height="105.83333mm"
   viewBox="0 0 105.83353 105.83333"
   version="1.1"
   id="svg2537"
   inkscape:version="1.1.1 (3bf5ae0d25, 2021-09-20)"
   sodipodi:docname="placeholder_avatar_1x1.svg"
   xmlns:inkscape="http://www.inkscape.org/namespaces/inkscape"
   xmlns:sodipodi="http://sodipodi.sourceforge.net/DTD/sodipodi-0.dtd"
   xmlns="http://www.w3.org/2000/svg"
   xmlns:svg="http://www.w3.org/2000/svg">
  <sodipodi:namedview
     id="namedview2539"
     pagecolor="#ffffff"
     bordercolor="#666666"
     borderopacity="1.0"
     inkscape:pageshadow="2"
     inkscape:pageopacity="0.0"
     inkscape:pagecheckerboard="0"
     inkscape:document-units="mm"
     showgrid="false"
     showguides="false"
     inkscape:zoom="1.4159882"
     inkscape:cx="309.67772"
     inkscape:cy="253.88629"
     inkscape:window-width="1920"
     inkscape:window-height="1009"
     inkscape:window-x="1912"
     inkscape:window-y="-8"
     inkscape:window-maximized="1"
     inkscape:current-layer="layer1" />
  <defs
     id="defs2534" />
  <g
     inkscape:label="Layer 1"
     inkscape:groupmode="layer"
     id="layer1"
     transform="translate(-2.9508733,-89.816189)">
    <path
       fill-rule="evenodd"
       clip-rule="evenodd"
       d="m 15.583845,89.836687 c 26.706677,-0.012 53.561358,0.012 80.261913,-0.012 5.227722,-0.200021 10.153072,3.150016 12.029352,8.012059 1.25285,3.035014 0.82717,6.350554 0.88248,9.581564 0,25.1177 -0.006,50.25391 0.006,75.37211 0.0988,4.51504 -2.38226,9.26608 -6.46834,11.34809 -1.98768,1.06501 -4.203018,1.51501 -6.449764,1.50501 -26.533786,-0.006 -53.104711,-0.012 -79.638546,0.006 -1.790147,-0.006 -3.555111,-0.2 -5.24012,-0.83 -3.5427644,-1.26001 -6.2708004,-4.45504 -7.4188152,-7.97506 -0.8084066,-2.59501 -0.5432184,-5.68355 -0.5738344,-8.38906 0.0062,-23.6787 0.0062,-47.36339 0,-71.04159 0.04938,-3.51001 -0.4000063,-6.96205 1.1787809,-10.211567 1.9812614,-4.455042 6.5547547,-7.419056 11.4307197,-7.370056 z"
       fill="#87ceeb"
       id="path2511"
       style="stroke-width:13.1474" />
    <path
       fill-rule="evenodd"
       clip-rule="evenodd"
       d="m 48.136231,103.36079 c -3.439553,0.01 -6.880141,0.02 -10.320582,-0.014 -0.261732,0.004 -0.522476,0.004 -0.787172,0.004 -0.989149,-0.001 -2.003978,-0.002 -2.953124,0.2 -1.610888,0.54501 -2.678556,2.56502 -2.154104,4.20002 0.429634,1.29503 1.506193,2.34504 2.907198,2.47004 1.784715,0.15 3.586223,0.15 5.386296,0.1 1.070137,-0.014 2.139781,-0.0294 3.20498,-0.006 -0.09876,0.15 -0.202472,0.35 -0.301238,0.5 -1.201003,1.98501 -2.342748,3.87502 -2.906212,6.18805 -1.000013,4.87004 -0.543216,9.93957 2.246449,14.16511 4.382282,7.31405 14.195845,10.68709 22.089926,7.31405 8.215024,-2.98001 13.381068,-12.5961 11.146766,-21.07166 -1.864221,-7.74056 -8.81997,-13.87461 -16.886794,-14.05361 -3.555602,-0.038 -7.112737,-0.0276 -10.670759,-0.018 z m 20.515238,15.15212 c -1.444465,-5.80055 -8.196604,-9.60607 -13.899644,-7.70306 -3.647456,1.16 -6.573222,3.99002 -7.566915,7.72806 -1.764961,5.78805 1.944223,12.4721 7.875561,13.8376 3.197081,0.53501 6.511545,0.40001 9.202643,-1.58 3.943757,-2.70002 5.672076,-7.69706 4.388207,-12.2811 z"
       fill="#ffffff"
       id="path2513"
       style="stroke-width:13.1474" />
    <path
       fill-rule="evenodd"
       clip-rule="evenodd"
       d="m 37.803401,147.27565 c 12.949063,0.05 25.972101,-0.05 38.908866,0.0244 2.443984,-0.05 4.406973,2.59501 3.35165,4.87502 -0.753096,1.66003 -2.209411,2.25003 -3.956597,2.25003 -6.12887,0.1 -12.263866,-0.05 -18.392789,0.05 6.770807,6.72105 13.430452,13.55961 20.176567,20.29916 0.95063,1.03001 2.110645,2.14501 2.049411,3.67004 -0.05432,1.83501 -1.413353,3.22501 -3.221772,3.43002 -1.598539,0.2 -2.796086,-1.05501 -3.851409,-2.06502 -5.59815,-5.72654 -11.21467,-11.43459 -16.886894,-17.08714 -5.073399,5.59655 -10.177815,11.1751 -15.282179,16.74114 -1.382241,1.38501 -2.69732,3.03502 -4.882041,2.28001 -1.672615,-0.5 -1.968916,-1.96001 -2.759048,-3.30501 1.289893,-3.16504 3.72795,-5.00405 5.900474,-7.49958 4.005979,-4.44002 8.110232,-8.79056 12.066481,-13.2816 -1.074087,-1.03001 -2.10472,-2.36501 -3.401033,-3.10002 -3.839063,-0.45 -7.801437,0.2 -11.634378,-0.25 -2.388674,-0.45 -3.616839,-3.22003 -2.295832,-5.31304 0.938283,-1.57001 2.42571,-1.74001 4.110671,-1.73001 z"
       fill="#ffffff"
       id="path2515"
       style="stroke-width:13.1474" />
  </g>
</svg>
